<?xml version="1.0" encoding="UTF-8"?>
<svg width="241px" height="46px" viewBox="0 0 241 46" version="1.1" xmlns="http://www.w3.org/2000/svg" xmlns:xlink="http://www.w3.org/1999/xlink">
    <!-- Generator: Sketch 52.5 (67469) - http://www.bohemiancoding.com/sketch -->
    <title>Group</title>
    <desc>Created with Sketch.</desc>
    <g id="Privacy-Policy" stroke="none" stroke-width="1" fill="none" fill-rule="evenodd">
        <g transform="translate(-105.000000, -52.000000)" fill="#FF6B6B" id="Group">
            <g transform="translate(105.000000, 52.000000)">
                <path d="M86.37,37 C85.9733313,37 85.6583345,36.8891678 85.425,36.6675 C85.1916655,36.4458322 85.0516669,36.1716683 85.005,35.845 L81.19,13.48 C81.1666666,13.4099997 81.155,13.3283338 81.155,13.235 C81.155,13.0483324 81.2308326,12.8791674 81.3825,12.7275 C81.5341674,12.5758326 81.7033324,12.5 81.89,12.5 L86.23,12.5 C86.8833366,12.5 87.2449996,12.7566641 87.315,13.27 L89.59,26.92 L92.11,18.87 C92.3666679,18.2399968 92.7516641,17.925 93.265,17.925 L95.785,17.925 C96.3683362,17.925 96.7533324,18.2399968 96.94,18.87 L99.46,26.92 L101.735,13.27 C101.805,12.7566641 102.166663,12.5 102.82,12.5 L107.16,12.5 C107.370001,12.5 107.550833,12.5758326 107.7025,12.7275 C107.854167,12.8791674 107.93,13.0483324 107.93,13.235 L107.895,13.48 L104.08,35.845 C104.033333,36.1716683 103.887501,36.4458322 103.6425,36.6675 C103.397499,36.8891678 103.088335,37 102.715,37 L99.39,37 C99.0166648,37 98.7250011,36.9066676 98.515,36.72 C98.3049989,36.5333324 98.1533338,36.3233345 98.06,36.09 L94.525,26.08 L90.99,36.09 C90.7799989,36.6966697 90.3483366,37 89.695,37 L86.37,37 Z M113.41,37 C113.153332,37 112.943334,36.9183341 112.78,36.755 C112.616666,36.5916658 112.535,36.381668 112.535,36.125 L112.535,13.375 C112.535,13.118332 112.622499,12.9083341 112.7975,12.745 C112.972501,12.5816658 113.176665,12.5 113.41,12.5 L117.925,12.5 C118.181668,12.5 118.397499,12.5816658 118.5725,12.745 C118.747501,12.9083341 118.835,13.118332 118.835,13.375 L118.835,21.81 L127.445,21.81 L127.445,13.375 C127.445,13.118332 127.526666,12.9083341 127.69,12.745 C127.853334,12.5816658 128.063332,12.5 128.32,12.5 L132.835,12.5 C133.091668,12.5 133.301666,12.5816658 133.465,12.745 C133.628334,12.9083341 133.71,13.118332 133.71,13.375 L133.71,36.125 C133.71,36.381668 133.628334,36.5916658 133.465,36.755 C133.301666,36.9183341 133.091668,37 132.835,37 L128.32,37 C128.063332,37 127.853334,36.9183341 127.69,36.755 C127.526666,36.5916658 127.445,36.381668 127.445,36.125 L127.445,27.41 L118.835,27.41 L118.835,36.125 C118.835,36.381668 118.747501,36.5916658 118.5725,36.755 C118.397499,36.9183341 118.181668,37 117.925,37 L113.41,37 Z M149.62,37.35 C146.329984,37.35 143.740009,36.545008 141.85,34.935 C139.959991,33.3249919 138.956667,30.9566823 138.84,27.83 C138.816667,27.1533299 138.805,26.1500066 138.805,24.82 C138.805,23.4666599 138.816667,22.45167 138.84,21.775 C138.956667,18.6949846 139.97749,16.3208417 141.9025,14.6525 C143.82751,12.9841583 146.399984,12.15 149.62,12.15 C152.840016,12.15 155.418324,12.9841583 157.355,14.6525 C159.291676,16.3208417 160.306666,18.6949846 160.4,21.775 C160.446667,23.1283401 160.47,24.1433299 160.47,24.82 C160.47,25.4733366 160.446667,26.4766599 160.4,27.83 C160.283333,30.9566823 159.280009,33.3249919 157.39,34.935 C155.499991,36.545008 152.910016,37.35 149.62,37.35 Z M149.62,32.31 C150.90334,32.31 151.924163,31.9250038 152.6825,31.155 C153.440837,30.3849961 153.843333,29.2066746 153.89,27.62 C153.936667,26.2666599 153.96,25.3100028 153.96,24.75 C153.96,24.1433303 153.936667,23.1866732 153.89,21.88 C153.843333,20.2933254 153.435004,19.1150039 152.665,18.345 C151.894996,17.5749961 150.880006,17.19 149.62,17.19 C148.359994,17.19 147.350837,17.5749961 146.5925,18.345 C145.834163,19.1150039 145.42,20.2933254 145.35,21.88 C145.326667,22.5333366 145.315,23.4899937 145.315,24.75 C145.315,25.9866728 145.326667,26.9433299 145.35,27.62 C145.42,29.2066746 145.82833,30.3849961 146.575,31.155 C147.32167,31.9250038 148.33666,32.31 149.62,32.31 Z M166.405,37 C166.171666,37 165.967501,36.9125009 165.7925,36.7375 C165.617499,36.5624991 165.53,36.3583345 165.53,36.125 L165.53,13.375 C165.53,13.118332 165.617499,12.9083341 165.7925,12.745 C165.967501,12.5816658 166.171666,12.5 166.405,12.5 L170.115,12.5 C170.698336,12.5 171.094999,12.7216644 171.305,13.165 L179.845,26.605 L179.845,13.375 C179.845,13.118332 179.932499,12.9083341 180.1075,12.745 C180.282501,12.5816658 180.486666,12.5 180.72,12.5 L184.92,12.5 C185.176668,12.5 185.386666,12.5816658 185.55,12.745 C185.713334,12.9083341 185.795,13.118332 185.795,13.375 L185.795,36.09 C185.795,36.3466679 185.713334,36.5624991 185.55,36.7375 C185.386666,36.9125009 185.176668,37 184.92,37 L181.175,37 C180.661664,37 180.276668,36.7783356 180.02,36.335 L171.48,23.385 L171.48,36.125 C171.48,36.3583345 171.398334,36.5624991 171.235,36.7375 C171.071666,36.9125009 170.861668,37 170.605,37 L166.405,37 Z M192.57,37 C192.336666,37 192.132501,36.9125009 191.9575,36.7375 C191.782499,36.5624991 191.695,36.3583345 191.695,36.125 L191.695,13.375 C191.695,13.118332 191.782499,12.9083341 191.9575,12.745 C192.132501,12.5816658 192.336666,12.5 192.57,12.5 L208.915,12.5 C209.171668,12.5 209.381666,12.5816658 209.545,12.745 C209.708334,12.9083341 209.79,13.118332 209.79,13.375 L209.79,16.665 C209.79,16.8983345 209.708334,17.1024991 209.545,17.2775 C209.381666,17.4525009 209.171668,17.54 208.915,17.54 L197.75,17.54 L197.75,22.265 L208.145,22.265 C208.401668,22.265 208.611666,22.3524991 208.775,22.5275 C208.938334,22.7025009 209.02,22.918332 209.02,23.175 L209.02,26.22 C209.02,26.4533345 208.938334,26.6574991 208.775,26.8325 C208.611666,27.0075009 208.401668,27.095 208.145,27.095 L197.75,27.095 L197.75,31.96 L209.195,31.96 C209.451668,31.96 209.661666,32.0416659 209.825,32.205 C209.988334,32.3683341 210.07,32.5783321 210.07,32.835 L210.07,36.125 C210.07,36.3583345 209.988334,36.5624991 209.825,36.7375 C209.661666,36.9125009 209.451668,37 209.195,37 L192.57,37 Z M218.98,37 C218.583331,37 218.268335,36.8891678 218.035,36.6675 C217.801666,36.4458322 217.661667,36.1716683 217.615,35.845 L213.8,13.48 C213.776667,13.4099997 213.765,13.3283338 213.765,13.235 C213.765,13.0483324 213.840833,12.8791674 213.9925,12.7275 C214.144167,12.5758326 214.313332,12.5 214.5,12.5 L218.84,12.5 C219.493337,12.5 219.855,12.7566641 219.925,13.27 L222.2,26.92 L224.72,18.87 C224.976668,18.2399968 225.361664,17.925 225.875,17.925 L228.395,17.925 C228.978336,17.925 229.363332,18.2399968 229.55,18.87 L232.07,26.92 L234.345,13.27 C234.415,12.7566641 234.776663,12.5 235.43,12.5 L239.77,12.5 C239.980001,12.5 240.160833,12.5758326 240.3125,12.7275 C240.464167,12.8791674 240.54,13.0483324 240.54,13.235 L240.505,13.48 L236.69,35.845 C236.643333,36.1716683 236.497501,36.4458322 236.2525,36.6675 C236.007499,36.8891678 235.698335,37 235.325,37 L232,37 C231.626665,37 231.335001,36.9066676 231.125,36.72 C230.914999,36.5333324 230.763334,36.3233345 230.67,36.09 L227.135,26.08 L223.6,36.09 C223.389999,36.6966697 222.958337,37 222.305,37 L218.98,37 Z" id="WHONEW"></path>
                <g id="Logo_Line">
                    <g id="Group">
                        <path d="M20.3119581,38.4913833 L21.5214644,39.1405172 C24.7938825,40.8968021 28.5437456,41.840868 32.4622582,41.840868 C36.3931435,41.840868 40.1542336,40.8908146 43.4336626,39.1240574 L44.6453267,38.4712864 L56.9413964,40.4669756 L51.5795217,31.4333226 L52.3861751,29.4848501 C53.238669,27.42565 53.6790608,25.2420966 53.6790608,23 C53.6790608,12.7038401 44.2751599,4.15913201 32.4622582,4.15913201 C20.6493566,4.15913201 11.2454557,12.7038401 11.2454557,23 C11.2454557,25.2662844 11.6954137,27.4727619 12.5660091,29.5512921 L13.3849124,31.506408 L8.05860356,40.4801397 L20.3119581,38.4913833 Z M32.4622582,46 C27.7695859,46 23.3751637,44.8397094 19.6075202,42.8176403 L0,46 L8.79684857,31.1791247 C7.73241912,28.6378195 7.14954786,25.8807591 7.14954786,23 C7.14954786,10.2974508 18.4824343,0 32.4622582,0 C46.4420821,0 57.7749686,10.2974508 57.7749686,23 C57.7749686,25.8496237 57.2046287,28.5782082 56.1620122,31.0966496 L65,45.9868359 L45.3533029,42.7981177 C41.5775957,44.8322394 37.1700121,46 32.4622582,46 Z" id="Combined-Shape" fill-rule="nonzero"></path>
                        <ellipse id="Oval-2" cx="25" cy="19.5" rx="4" ry="6.5"></ellipse>
                        <ellipse id="Oval-2-Copy" cx="40" cy="19.5" rx="4" ry="6.5"></ellipse>
                    </g>
                </g>
            </g>
        </g>
    </g>
</svg>